<svg fill="#525252" xmlns="http://www.w3.org/2000/svg" xmlns:xlink="http://www.w3.org/1999/xlink" version="1.1" x="0px" y="0px" viewBox="0 0 60 60" style="enable-background:new 0 0 60 60;" xml:space="preserve"><g><g><g><g><path d="M57.5,60h-55C1.122,60,0,58.878,0,57.5v-55C0,1.122,1.122,0,2.5,0h55C58.878,0,60,1.122,60,2.5v55      C60,58.878,58.878,60,57.5,60z M2.5,2C2.224,2,2,2.224,2,2.5v55C2,57.776,2.224,58,2.5,58h55c0.276,0,0.5-0.224,0.5-0.5v-55      C58,2.224,57.776,2,57.5,2H2.5z"></path></g><g><path d="M59,11H1c-0.552,0-1-0.448-1-1s0.448-1,1-1h58c0.552,0,1,0.448,1,1S59.552,11,59,11z"></path></g><g><path d="M6,7C5.173,7,4.5,6.327,4.5,5.5S5.173,4,6,4s1.5,0.673,1.5,1.5S6.827,7,6,7z M6,5C5.724,5,5.5,5.224,5.5,5.5      S5.724,6,6,6s0.5-0.224,0.5-0.5S6.276,5,6,5z"></path></g><g><path d="M11,7c-0.827,0-1.5-0.673-1.5-1.5S10.173,4,11,4s1.5,0.673,1.5,1.5S11.827,7,11,7z M11,5c-0.276,0-0.5,0.224-0.5,0.5      S10.724,6,11,6s0.5-0.224,0.5-0.5S11.276,5,11,5z"></path></g><g><path d="M16,7c-0.827,0-1.5-0.673-1.5-1.5S15.173,4,16,4c0.827,0,1.5,0.673,1.5,1.5S16.827,7,16,7z M16,5      c-0.276,0-0.5,0.224-0.5,0.5S15.724,6,16,6s0.5-0.224,0.5-0.5S16.276,5,16,5z"></path></g></g><g><path d="M30,38.5c-6.617,0-12-5.383-12-12s5.383-12,12-12s12,5.383,12,12S36.617,38.5,30,38.5z M30,16.5c-5.514,0-10,4.486-10,10     s4.486,10,10,10s10-4.486,10-10S35.514,16.5,30,16.5z"></path></g><g><path d="M35,44.5H25c-0.552,0-1-0.448-1-1s0.448-1,1-1h10c0.552,0,1,0.448,1,1S35.552,44.5,35,44.5z"></path></g><g><path d="M40,49.5H20c-0.552,0-1-0.448-1-1s0.448-1,1-1h20c0.552,0,1,0.448,1,1S40.552,49.5,40,49.5z"></path></g><g><path d="M37,54.5H23c-0.552,0-1-0.448-1-1s0.448-1,1-1h14c0.552,0,1,0.448,1,1S37.552,54.5,37,54.5z"></path></g><g><path d="M28,31c-0.192,0-0.385-0.055-0.554-0.168l-3-2c-0.459-0.306-0.583-0.927-0.277-1.387     c0.306-0.459,0.926-0.585,1.387-0.277l2.318,1.545l6.42-6.42c0.391-0.391,1.023-0.391,1.414,0c0.391,0.391,0.391,1.023,0,1.414     l-7,7C28.514,30.9,28.258,31,28,31z"></path></g></g></g></svg>